<?xml version="1.0" standalone="no"?><!DOCTYPE svg PUBLIC "-//W3C//DTD SVG 1.1//EN" "http://www.w3.org/Graphics/SVG/1.1/DTD/svg11.dtd"><svg t="1651330697574" class="icon" viewBox="0 0 1024 1024" version="1.1" xmlns="http://www.w3.org/2000/svg" p-id="18794" width="128" height="128" xmlns:xlink="http://www.w3.org/1999/xlink"><defs><style type="text/css">@font-face { font-family: feedback-iconfont; src: url("//at.alicdn.com/t/font_1031158_u69w8yhxdu.woff2?t=1630033759944") format("woff2"), url("//at.alicdn.com/t/font_1031158_u69w8yhxdu.woff?t=1630033759944") format("woff"), url("//at.alicdn.com/t/font_1031158_u69w8yhxdu.ttf?t=1630033759944") format("truetype"); }
</style></defs><path d="M21.333333 512c0 270.592 219.925333 490.666667 490.304 490.666667 54.784 0 97.344-42.581333 97.344-97.408 0-25.258667-9.365333-48.341333-26.688-65.664-10.090667-10.112-15.125333-23.829333-15.125333-38.976 0-33.92 25.941333-59.882667 59.84-59.882667h94.442667C876.48 740.736 1002.666667 614.464 1002.666667 459.328 1002.666667 217.6 782.762667 21.333333 511.637333 21.333333 241.258667 21.333333 21.333333 241.408 21.333333 512z m202.666667 21.333333a53.333333 53.333333 0 1 0 0-106.666666 53.333333 53.333333 0 0 0 0 106.666666z m0 42.666667a96 96 0 1 1 0-192 96 96 0 0 1 0 192z m149.333333-256a53.333333 53.333333 0 1 0 0-106.666667 53.333333 53.333333 0 0 0 0 106.666667z m0 42.666667a96 96 0 1 1 0-192 96 96 0 0 1 0 192z m277.333334-42.666667a53.333333 53.333333 0 1 0 0-106.666667 53.333333 53.333333 0 0 0 0 106.666667z m0 42.666667a96 96 0 1 1 0-192 96 96 0 0 1 0 192z m149.333333 170.666666a53.333333 53.333333 0 1 0 0-106.666666 53.333333 53.333333 0 0 0 0 106.666666z m0 42.666667a96 96 0 1 1 0-192 96 96 0 0 1 0 192z" p-id="18795"></path></svg>