<?xml version="1.0" standalone="no"?><!DOCTYPE svg PUBLIC "-//W3C//DTD SVG 1.1//EN" "http://www.w3.org/Graphics/SVG/1.1/DTD/svg11.dtd"><svg t="1651330528768" class="icon" viewBox="0 0 1024 1024" version="1.1" xmlns="http://www.w3.org/2000/svg" p-id="15358" width="128" height="128" xmlns:xlink="http://www.w3.org/1999/xlink"><defs><style type="text/css">@font-face { font-family: feedback-iconfont; src: url("//at.alicdn.com/t/font_1031158_u69w8yhxdu.woff2?t=1630033759944") format("woff2"), url("//at.alicdn.com/t/font_1031158_u69w8yhxdu.woff?t=1630033759944") format("woff"), url("//at.alicdn.com/t/font_1031158_u69w8yhxdu.ttf?t=1630033759944") format("truetype"); }
</style></defs><path d="M512 1024C230.4 1024 0 793.6 0 512S230.4 0 512 0s512 230.4 512 512S793.6 1024 512 1024zM512 42.666667C253.866667 42.666667 42.666667 253.866667 42.666667 512s211.2 469.333333 469.333333 469.333333 469.333333-211.2 469.333333-469.333333S770.133333 42.666667 512 42.666667z" p-id="15359"></path><path d="M266.666667 778.666667c-6.4 0-10.666667-2.133333-14.933333-6.4-6.4-6.4-8.533333-14.933333-4.266667-23.466667l138.666667-352c2.133333-6.4 6.4-10.666667 12.8-12.8l352-138.666667c8.533333-2.133333 17.066667-2.133333 23.466667 4.266667s8.533333 14.933333 4.266667 23.466667L640 625.066667c-4.266667 10.666667-17.066667 17.066667-27.733333 12.8-10.666667-4.266667-17.066667-17.066667-12.8-27.733333l121.6-307.2-296.533333 117.333333-117.333333 296.533333 217.6-85.333333c10.666667-4.266667 23.466667 2.133333 27.733333 12.8 4.266667 10.666667 0 23.466667-12.8 27.733333L277.333333 776.533333C270.933333 778.666667 268.8 778.666667 266.666667 778.666667z" p-id="15360"></path><path d="M512 512m-36.266667 0a1.7 1.7 0 1 0 72.533333 0 1.7 1.7 0 1 0-72.533333 0Z" p-id="15361"></path></svg>