<?xml version="1.0" standalone="no"?><!DOCTYPE svg PUBLIC "-//W3C//DTD SVG 1.1//EN" "http://www.w3.org/Graphics/SVG/1.1/DTD/svg11.dtd"><svg t="1651330900147" class="icon" viewBox="0 0 1024 1024" version="1.1" xmlns="http://www.w3.org/2000/svg" p-id="23261" width="128" height="128" xmlns:xlink="http://www.w3.org/1999/xlink"><defs><style type="text/css">@font-face { font-family: feedback-iconfont; src: url("//at.alicdn.com/t/font_1031158_u69w8yhxdu.woff2?t=1630033759944") format("woff2"), url("//at.alicdn.com/t/font_1031158_u69w8yhxdu.woff?t=1630033759944") format("woff"), url("//at.alicdn.com/t/font_1031158_u69w8yhxdu.ttf?t=1630033759944") format("truetype"); }
</style></defs><path d="M170.667 48.762V780.19a73.143 73.143 0 0 0 73.143 73.143h331.044a24.381 24.381 0 1 1 0 48.762H243.81A121.905 121.905 0 0 1 121.905 780.19V0H780.19a121.905 121.905 0 0 1 121.905 121.905v780.19H696.32a24.381 24.381 0 0 1 0-48.762h157.013V121.905a73.143 73.143 0 0 0-73.143-73.143H170.667z m534.479 955.928l-31.549-117.76c-8.411-31.402 38.693-44.007 47.104-12.629l31.549 117.76c8.411 31.403-38.693 44.032-47.104 12.63zM499.81 719.238V48.762h48.761v670.476h353.524V768H138.533v-48.762H499.81zM271.75 992.061l31.549-117.76c8.411-31.378 55.515-18.773 47.104 12.63l-31.549 117.76c-8.411 31.402-55.515 18.773-47.104-12.63z m362.155-541.013a24.381 24.381 0 0 1 0-48.762h48.762a24.381 24.381 0 0 1 0 48.762h-48.762z m-268.19 0a24.381 24.381 0 0 1 0-48.762h48.761a24.381 24.381 0 0 1 0 48.762h-48.762z" p-id="23262"></path></svg>