<?xml version="1.0" standalone="no"?><!DOCTYPE svg PUBLIC "-//W3C//DTD SVG 1.1//EN" "http://www.w3.org/Graphics/SVG/1.1/DTD/svg11.dtd"><svg t="1651330908813" class="icon" viewBox="0 0 1024 1024" version="1.1" xmlns="http://www.w3.org/2000/svg" p-id="23487" width="128" height="128" xmlns:xlink="http://www.w3.org/1999/xlink"><defs><style type="text/css">@font-face { font-family: feedback-iconfont; src: url("//at.alicdn.com/t/font_1031158_u69w8yhxdu.woff2?t=1630033759944") format("woff2"), url("//at.alicdn.com/t/font_1031158_u69w8yhxdu.woff?t=1630033759944") format("woff"), url("//at.alicdn.com/t/font_1031158_u69w8yhxdu.ttf?t=1630033759944") format("truetype"); }
</style></defs><path d="M243.81 48.762v853.333a73.143 73.143 0 0 0 73.142 73.143H780.19V121.905a73.143 73.143 0 0 0-73.142-73.143H243.81zM219.429 0h487.619a121.905 121.905 0 0 1 121.904 121.905v877.714a24.381 24.381 0 0 1-24.38 24.381h-487.62a121.905 121.905 0 0 1-121.904-121.905V24.381A24.381 24.381 0 0 1 219.428 0z m0 451.048a24.381 24.381 0 0 1 0-48.762h463.238a24.381 24.381 0 0 1 0 48.762H219.429z m121.904-268.19a24.381 24.381 0 1 1 48.762 0v97.523a24.381 24.381 0 0 1-48.762 0v-97.524z m0 414.475a24.381 24.381 0 0 1 48.762 0v121.905a24.381 24.381 0 0 1-48.762 0V597.333z" p-id="23488"></path></svg>