<?xml version="1.0" standalone="no"?><!DOCTYPE svg PUBLIC "-//W3C//DTD SVG 1.1//EN" "http://www.w3.org/Graphics/SVG/1.1/DTD/svg11.dtd"><svg t="1651330855041" class="icon" viewBox="0 0 1030 1024" version="1.1" xmlns="http://www.w3.org/2000/svg" p-id="22285" width="128.75" height="128" xmlns:xlink="http://www.w3.org/1999/xlink"><defs><style type="text/css">@font-face { font-family: feedback-iconfont; src: url("//at.alicdn.com/t/font_1031158_u69w8yhxdu.woff2?t=1630033759944") format("woff2"), url("//at.alicdn.com/t/font_1031158_u69w8yhxdu.woff?t=1630033759944") format("woff"), url("//at.alicdn.com/t/font_1031158_u69w8yhxdu.ttf?t=1630033759944") format("truetype"); }
</style></defs><path d="M366.954667 281.578667c0-55.936-44.778667-101.269333-100.010667-101.269334-55.232 0-100.010667 45.333333-100.010667 101.269334s44.778667 101.269333 100.010667 101.269333c55.232 0 100.010667-45.333333 100.010667-101.269333z m-142.869334 0c0-23.978667 19.2-43.392 42.858667-43.392 23.68 0 42.858667 19.434667 42.858667 43.392s-19.2 43.392-42.858667 43.392c-23.68 0.021333-42.858667-19.413333-42.858667-43.392zM847.914667 706.112l-107.285334-102.485333a19.306667 19.306667 0 0 0-27.818666 0 19.008 19.008 0 0 0-5.952 13.802666l0.021333 206.954667c0 5.909333 1.984 9.856 5.973333 13.781333a18.069333 18.069333 0 0 0 13.909334 5.930667c5.973333 0 9.92-1.984 13.909333-5.930667l103.317333-104.469333c3.968-3.946667 5.952-7.872 5.952-11.818667 1.984 0 1.984-1.962667 1.984-3.946666a15.061333 15.061333 0 0 0-3.989333-9.856v-1.962667z" p-id="22286"></path><path d="M948.928 525.76l59.925333-48.96 11.776-8.661333V193.194667c0-79.978667-63.978667-144.853333-142.869333-144.853334H0v752.192c0 79.914667 63.978667 144.725333 142.869333 144.725334h329.792a28.928 28.928 0 1 0 0-57.856H142.869333c-47.317333 0-85.738667-38.890667-85.738666-86.848V106.197333h820.608c47.317333 0 85.717333 38.954667 85.717333 86.976v245.482667l-60.053333 48.341333a272.298667 272.298667 0 0 0-153.237334-47.018666c-90.282667 0-170.453333 43.946667-220.373333 111.530666l-57.493333-35.861333-19.264-12.181333-16.064 16.277333-228.586667 231.466667a29.184 29.184 0 0 0 0 40.917333c11.157333 11.306667 29.248 11.306667 40.405333 0l212.522667-215.189333 39.296 24.469333a271.978667 271.978667 0 0 0-24.234667 112.405333c0 150.976 122.837333 273.813333 273.813334 273.813334S1024 864.789333 1024 713.792c0-72.768-28.608-138.944-75.072-188.032z m-198.741333 405.674667c-120 0-217.642667-97.642667-217.642667-217.642667s97.642667-217.642667 217.642667-217.642667 217.642667 97.621333 217.642666 217.642667-97.642667 217.642667-217.642666 217.642667z" p-id="22287"></path></svg>