<?xml version="1.0" standalone="no"?><!DOCTYPE svg PUBLIC "-//W3C//DTD SVG 1.1//EN" "http://www.w3.org/Graphics/SVG/1.1/DTD/svg11.dtd"><svg t="1651330954341" class="icon" viewBox="0 0 1024 1024" version="1.1" xmlns="http://www.w3.org/2000/svg" p-id="24274" width="128" height="128" xmlns:xlink="http://www.w3.org/1999/xlink"><defs><style type="text/css">@font-face { font-family: feedback-iconfont; src: url("//at.alicdn.com/t/font_1031158_u69w8yhxdu.woff2?t=1630033759944") format("woff2"), url("//at.alicdn.com/t/font_1031158_u69w8yhxdu.woff?t=1630033759944") format("woff"), url("//at.alicdn.com/t/font_1031158_u69w8yhxdu.ttf?t=1630033759944") format("truetype"); }
</style></defs><path d="M832.122 46.348H128v857.454c0 18.53 6.754 36.279 18.749 49.347a61.001 61.001 0 0 0 45.105 20.358h645.778c11.776 0 21.333 10.386 21.333 23.186s-9.557 23.162-21.333 23.162H191.854c-58.88 0-106.52-51.931-106.52-116.053V0h746.788c58.758 0 106.545 52.029 106.545 115.81v761.417c0 12.8-9.533 23.162-21.334 23.162S896 890.027 896 877.227V115.81c0-38.205-28.696-69.462-63.878-69.462zM256 170.667v195.047h512V170.667H256z m560.762-48.762v292.571H207.238V121.905h609.524zM768 560.762h-48.762v292.571H768V560.762z m48.762 0v292.571A48.762 48.762 0 0 1 768 902.095h-48.762a48.762 48.762 0 0 1-48.762-48.762V560.762A48.762 48.762 0 0 1 719.238 512H768a48.762 48.762 0 0 1 48.762 48.762zM256 572.952a24.381 24.381 0 0 1 0-48.762h97.524a24.381 24.381 0 0 1 0 48.762H256z m219.429 0a24.381 24.381 0 0 1 0-48.762h97.523a24.381 24.381 0 0 1 0 48.762H475.43zM256 719.238a24.381 24.381 0 0 1 0-48.762h97.524a24.381 24.381 0 0 1 0 48.762H256z m219.429 0a24.381 24.381 0 0 1 0-48.762h97.523a24.381 24.381 0 0 1 0 48.762H475.43zM256 865.524a24.381 24.381 0 0 1 0-48.762h97.524a24.381 24.381 0 0 1 0 48.762H256z m219.429 0a24.381 24.381 0 0 1 0-48.762h97.523a24.381 24.381 0 0 1 0 48.762H475.43zM664.38 201.143h36.571v121.905h-36.571V201.143z" p-id="24275"></path></svg>