<?xml version="1.0" standalone="no"?><!DOCTYPE svg PUBLIC "-//W3C//DTD SVG 1.1//EN" "http://www.w3.org/Graphics/SVG/1.1/DTD/svg11.dtd"><svg t="1651330881385" class="icon" viewBox="0 0 1024 1024" version="1.1" xmlns="http://www.w3.org/2000/svg" p-id="22886" width="128" height="128" xmlns:xlink="http://www.w3.org/1999/xlink"><defs><style type="text/css">@font-face { font-family: feedback-iconfont; src: url("//at.alicdn.com/t/font_1031158_u69w8yhxdu.woff2?t=1630033759944") format("woff2"), url("//at.alicdn.com/t/font_1031158_u69w8yhxdu.woff?t=1630033759944") format("woff"), url("//at.alicdn.com/t/font_1031158_u69w8yhxdu.ttf?t=1630033759944") format("truetype"); }
</style></defs><path d="M761.066667 127.04c-120.704 0-218.901333 99.776-218.901334 222.421333 0 88.362667 105.877333 227.562667 168.981334 302.677334a64.981333 64.981333 0 0 0 49.92 23.424h0.021333c19.242667 0 37.44-8.533333 49.92-23.402667 63.104-75.114667 169.002667-214.336 169.002667-302.698667-0.021333-122.645333-98.218667-222.421333-218.944-222.421333z m5.056 486.592c-2.346667 2.773333-7.744 2.752-10.048 0.021333-95.616-113.792-155.008-215.04-155.008-264.192 0-89.834667 71.786667-162.922667 160.021333-162.922666v0.021333c88.213333 0 160.021333 73.088 160.042667 162.922667 0 49.152-59.413333 150.378667-155.008 264.149333z" p-id="22887"></path><path d="M761.066667 233.941333a84.437333 84.437333 0 0 0-84.309334 84.330667 84.437333 84.437333 0 0 0 84.330667 84.309333h0.021333a84.501333 84.501333 0 0 0 84.288-84.330666 84.416 84.416 0 0 0-84.330666-84.309334z m0.021333 119.253334a34.944 34.944 0 0 1-0.021333-69.845334 35.029333 35.029333 0 0 1 34.944 34.922667c0 19.242667-15.658667 34.922667-34.922667 34.922667z" p-id="22888"></path><path d="M1024 179.029333V141.184c0-60.544-52.714667-113.514667-112.938667-113.514667H112.938667C52.714667 27.669333 0 80.64 0 141.184v560c0 60.544 52.714667 113.514667 112.938667 113.514667h798.122666c60.245333 0 112.938667-52.970667 112.938667-113.514667v-67.968c0-15.146667-15.061333-30.272-30.122667-30.272s-30.122667 7.573333-30.122666 30.272v67.968c0 30.272-22.592 52.970667-52.714667 52.970667H112.938667c-30.122667 0-52.714667-22.698667-52.714667-52.970667V141.184c0-30.272 22.592-52.970667 52.714667-52.970667h798.122666c30.122667 0 52.714667 22.698667 52.714667 52.970667v30.272c0 15.146667 15.061333 30.272 30.122667 30.272 15.04 0 30.101333-7.573333 30.101333-22.698667z" p-id="22889"></path><path d="M163.477333 649.002667h301.184c15.061333 0 30.122667-15.125333 30.122667-30.272 0-15.146667-15.061333-30.272-30.122667-30.272H163.477333c-15.061333 0-30.122667 15.125333-30.122666 30.272 0 15.146667 15.061333 30.272 30.122666 30.272zM335.082667 470.570667c15.061333 0 30.122667-15.125333 30.122666-30.272 0-15.125333-15.061333-30.272-30.122666-30.272H160.597333c-15.061333 0-30.122667 15.125333-30.122666 30.272 0 15.146667 15.061333 30.272 30.122666 30.272h174.485334zM813.184 935.786667H210.816c-15.061333 0-30.122667 15.125333-30.122667 30.272 0 15.146667 15.061333 30.272 30.122667 30.272h602.346667c15.061333 0 30.122667-15.125333 30.122666-30.272 0-15.146667-15.04-30.272-30.101333-30.272z" p-id="22890"></path></svg>