<?xml version="1.0" standalone="no"?><!DOCTYPE svg PUBLIC "-//W3C//DTD SVG 1.1//EN" "http://www.w3.org/Graphics/SVG/1.1/DTD/svg11.dtd"><svg t="1651330567871" class="icon" viewBox="0 0 1024 1024" version="1.1" xmlns="http://www.w3.org/2000/svg" p-id="16148" width="128" height="128" xmlns:xlink="http://www.w3.org/1999/xlink"><defs><style type="text/css">@font-face { font-family: feedback-iconfont; src: url("//at.alicdn.com/t/font_1031158_u69w8yhxdu.woff2?t=1630033759944") format("woff2"), url("//at.alicdn.com/t/font_1031158_u69w8yhxdu.woff?t=1630033759944") format("woff"), url("//at.alicdn.com/t/font_1031158_u69w8yhxdu.ttf?t=1630033759944") format("truetype"); }
</style></defs><path d="M796.672 1006.592c-108.544 0-196.608-87.04-196.608-196.608S688.128 614.4 796.672 614.4 993.28 701.44 993.28 809.984C991.232 919.552 903.168 1006.592 796.672 1006.592zM796.672 658.432c-84.992 0-153.6 68.608-153.6 153.6 0 84.992 68.608 153.6 153.6 153.6s153.6-68.608 153.6-153.6C948.224 727.04 880.64 658.432 796.672 658.432z" p-id="16149"></path><path d="M884.736 835.584c12.288 0 23.552-10.24 23.552-23.552 0-12.288-10.24-23.552-23.552-23.552L709.632 788.48c-12.288 0-23.552 10.24-23.552 23.552 0 12.288 10.24 23.552 23.552 23.552L884.736 835.584 884.736 835.584z" p-id="16150"></path><path d="M760.832 351.232 201.728 351.232c-12.288 0-23.552 10.24-23.552 23.552s10.24 23.552 23.552 23.552l559.104 0c12.288 0 23.552-10.24 23.552-23.552S773.12 351.232 760.832 351.232z" p-id="16151"></path><path d="M910.336 148.48C910.336 71.68 847.872 10.24 773.12 10.24L54.272 10.24 30.72 10.24l0 23.552L30.72 870.4c0 76.8 59.392 138.24 136.192 138.24l417.792 0 0 0c13.312-1.024 22.528-11.264 22.528-24.576 0-13.312-10.24-23.552-22.528-24.576l0 0-419.84 0c-47.104 0-87.04-40.96-87.04-90.112L77.824 59.392l695.296 0c47.104 0 87.04 40.96 87.04 90.112l0 406.528 0 0c0 0 0 0 0 0 0 13.312 11.264 24.576 24.576 24.576 13.312 0 24.576-11.264 24.576-24.576 0 0 0 0 0 0l0 0L909.312 148.48z" p-id="16152"></path><path d="M762.88 204.8 203.776 204.8c-12.288 0-23.552 10.24-23.552 23.552s10.24 23.552 23.552 23.552l559.104 0c12.288 0 23.552-10.24 23.552-23.552C788.48 215.04 778.24 204.8 762.88 204.8z" p-id="16153"></path></svg>