<?xml version="1.0" standalone="no"?><!DOCTYPE svg PUBLIC "-//W3C//DTD SVG 1.1//EN" "http://www.w3.org/Graphics/SVG/1.1/DTD/svg11.dtd"><svg t="1651330924443" class="icon" viewBox="0 0 1024 1024" version="1.1" xmlns="http://www.w3.org/2000/svg" p-id="23899" width="128" height="128" xmlns:xlink="http://www.w3.org/1999/xlink"><defs><style type="text/css">@font-face { font-family: feedback-iconfont; src: url("//at.alicdn.com/t/font_1031158_u69w8yhxdu.woff2?t=1630033759944") format("woff2"), url("//at.alicdn.com/t/font_1031158_u69w8yhxdu.woff?t=1630033759944") format("woff"), url("//at.alicdn.com/t/font_1031158_u69w8yhxdu.ttf?t=1630033759944") format("truetype"); }
</style></defs><path d="M733.71 836.398V125.453a72.94 72.94 0 0 0-72.915-72.94H91.897v841.675a72.94 72.94 0 0 0 72.94 72.914h767.266v-745.21c0-38.596-32.48-70.182-72.94-70.182h-72.941v697.002h-1.103c-6.721 36.917-43.323 63.54-85.622 63.54H215.565c-46.894 0-86.751-32.689-86.751-75.88V705.51c0-47.367 38.964-85.57 86.751-85.57h383.081c47.787 0 86.751 38.203 86.751 85.57 0 47.366-38.964 85.543-86.75 85.543H252.874a26.256 26.256 0 0 1 0-52.513h345.771c19.036 0 34.239-14.913 34.239-33.03s-15.23-33.057-34.239-33.057H215.591c-19.01 0-34.238 14.914-34.238 33.057v130.888c0 11.605 14.31 23.342 34.238 23.342h483.906c19.929 0 34.212-11.737 34.212-23.368z m26.256 183.217H164.838A125.453 125.453 0 0 1 39.385 894.188V0h621.41a125.506 125.506 0 0 1 122.696 99.197h75.671c69.133 0 125.453 54.744 125.453 122.67v797.722h-224.65z" p-id="23900"></path></svg>