<?xml version="1.0" standalone="no"?><!DOCTYPE svg PUBLIC "-//W3C//DTD SVG 1.1//EN" "http://www.w3.org/Graphics/SVG/1.1/DTD/svg11.dtd"><svg t="1651330962093" class="icon" viewBox="0 0 1024 1024" version="1.1" xmlns="http://www.w3.org/2000/svg" p-id="24460" width="128" height="128" xmlns:xlink="http://www.w3.org/1999/xlink"><defs><style type="text/css">@font-face { font-family: feedback-iconfont; src: url("//at.alicdn.com/t/font_1031158_u69w8yhxdu.woff2?t=1630033759944") format("woff2"), url("//at.alicdn.com/t/font_1031158_u69w8yhxdu.woff?t=1630033759944") format("woff"), url("//at.alicdn.com/t/font_1031158_u69w8yhxdu.ttf?t=1630033759944") format("truetype"); }
</style></defs><path d="M1024 512C1024 229.23 794.77 0 512 0S0 229.23 0 512s229.23 512 512 512c117.419 0 228.815-39.668 318.757-111.323a24.966 24.966 0 1 0-31.11-39.059A459.922 459.922 0 0 1 512 974.068C256.829 974.043 49.957 767.147 49.957 512 49.957 256.829 256.829 49.957 512 49.957S974.043 256.829 974.043 512c0 87.503-24.332 171.325-69.583 243.956a24.966 24.966 0 0 0 42.423 26.429A509.66 509.66 0 0 0 1024 512z" p-id="24461"></path><path d="M512 877.714c-201.972 0-365.714-163.742-365.714-365.714S310.028 146.286 512 146.286 877.714 310.028 877.714 512 713.972 877.714 512 877.714z m0-48.762c175.055 0 316.952-141.897 316.952-316.952S687.055 195.048 512 195.048 195.048 336.945 195.048 512 336.945 828.952 512 828.952zM420.669 431.25a121.783 121.783 0 0 1 67.048-38.741 24.674 24.674 0 0 1-0.098-2.414V195.048a24.381 24.381 0 0 1 48.762 0v195.047c0 0.805-0.049 1.61-0.122 2.414 26.478 5.364 49.835 19.26 67.072 38.766a22.74 22.74 0 0 1 2.048-1.341L774.29 332.41a24.381 24.381 0 0 1 24.381 42.228L629.76 472.162a24.674 24.674 0 0 1-2.146 1.097 122.054 122.054 0 0 1 6.29 38.741c0 13.531-2.194 26.575-6.29 38.741 0.732 0.317 1.463 0.683 2.146 1.097l168.911 97.524a24.381 24.381 0 1 1-24.38 42.228l-168.912-97.524a24.674 24.674 0 0 1-2.048-1.316 121.783 121.783 0 0 1-67.048 38.741c0.05 0.805 0.098 1.61 0.098 2.414v195.047a24.381 24.381 0 0 1-48.762 0V633.905c0-0.805 0.049-1.61 0.122-2.414a121.783 121.783 0 0 1-67.072-38.766 22.74 22.74 0 0 1-2.048 1.341L249.71 691.59a24.381 24.381 0 0 1-24.381-42.228l168.911-97.524c0.707-0.414 1.414-0.78 2.146-1.097a121.783 121.783 0 0 1-6.29-38.741c0-13.531 2.194-26.575 6.29-38.741a24.674 24.674 0 0 1-2.146-1.097l-168.911-97.524a24.381 24.381 0 1 1 24.38-42.228l168.912 97.524c0.731 0.414 1.39 0.853 2.048 1.316zM512 585.143a73.143 73.143 0 1 0 0-146.286 73.143 73.143 0 0 0 0 146.286z" p-id="24462"></path></svg>